<svg xmlns="http://www.w3.org/2000/svg" viewBox="0 0 375.48 84.46"><defs><style>.cls-1{fill:#0053ad;}.cls-2{fill:#fcc35d;}.cls-3{fill:#006fe6;}.cls-4{fill:#e95a1c;}</style></defs><title>Chipster_logo_1</title><g id="Layer_2" data-name="Layer 2"><g id="Layer_1-2" data-name="Layer 1"><path class="cls-1" d="M136.92,17.09a25.94,25.94,0,0,0-13.44-3.75c-13.68,0-24.8,11.35-24.8,24.08,0,13,11.12,24.4,24.8,24.4a26,26,0,0,0,13.44-3.76v8.16a32.84,32.84,0,0,1-13.84,3.12c-18.4,0-32.64-14.24-32.64-31.84S104.68,5.81,123.08,5.81A32,32,0,0,1,136.92,9Z"/><path class="cls-1" d="M152,67.42h-7.52V5h7.36V32.22a17.13,17.13,0,0,1,13-5.84c8.72,0,14.4,5.68,14.4,15V67.42H171.8V43.58C171.8,35.66,167.16,33,162,33c-4.32,0-10,3.36-10,9.84Z"/><path class="cls-1" d="M195.48,20.86h-7.84V12.05h7.84Zm-.16,46.56H187.8v-40h7.52Z"/><path class="cls-1" d="M211.4,61.1V84.46h-7.52v-57h7.2V34a20.73,20.73,0,0,1,16.72-8.25c11.92,0,20.72,9.85,20.72,21.69,0,11.6-8.8,21.68-20.72,21.68A20.82,20.82,0,0,1,211.4,61.1ZM226,62.38a15,15,0,0,0,0-29.92,15,15,0,0,0,0,29.92Z"/><path class="cls-1" d="M276.2,28v6.88a17.52,17.52,0,0,0-8.08-2.4c-3.6,0-6,1.68-6,4.24,0,1.84,1.92,3.44,6.8,6.56,9.36,5.92,11.84,9.52,11.84,14.16,0,6.72-5.52,11.12-14.16,11.2a28.9,28.9,0,0,1-11.68-2.88V58.86c4,2.16,8.16,3.36,10.8,3.36,4.8-.08,7-2.24,7-4.88,0-1.6-.88-3.68-8.24-8.24-8.08-5.2-10.32-7.84-10.32-12.8,0-4.72,3.92-10.09,13.36-10.09A21.25,21.25,0,0,1,276.2,28Z"/><path class="cls-1" d="M297.08,33.74V67.42h-7.44V33.74h-5.36V27.42h5.36V14.69l7.44-3V27.42h5.28v6.32Z"/><path class="cls-1" d="M329,69.42c-13.84,0-23-9.68-23-22,0-12.16,9-22,21.68-22a21.26,21.26,0,0,1,21.44,21.52v1.84H314c.56,8.56,6.4,14.32,15,14.32A21.32,21.32,0,0,0,344,57l4.32,4.88A27.18,27.18,0,0,1,329,69.42ZM314.36,42.94h26.48c-1.52-6.56-6.56-11.12-13.2-11.12S315.88,36.22,314.36,42.94Z"/><path class="cls-1" d="M363.16,67.42h-7.52v-40h7.2v8.24c1.6-3.12,5.68-8.24,11.36-8.24h1.28V35.9a3.58,3.58,0,0,0-1.6-.32c-6.56,0-10.72,5.92-10.72,9.92Z"/><circle class="cls-2" cx="28.96" cy="14.33" r="14.33"/><circle class="cls-3" cx="18.86" cy="50.37" r="18.86"/><circle class="cls-4" cx="55.76" cy="37.09" r="17.03"/></g></g></svg>